<svg width="800" height="200" viewBox="0 0 800 200" fill="none" xmlns="http://www.w3.org/2000/svg">
<rect x="12.5928" y="13.5928" width="171.814" height="171.814" stroke="white" stroke-width="5.18555"/>
<line x1="111.041" y1="55.4693" x2="79.0141" y2="143.463" stroke="white" stroke-width="13.8281" stroke-linecap="round"/>
<line x1="111.291" y1="55.25" x2="127.541" y2="55.25" stroke="white" stroke-width="13.8281" stroke-linecap="round"/>
<line x1="111.291" y1="100.191" x2="127.541" y2="100.191" stroke="white" stroke-width="13.8281" stroke-linecap="round"/>
<line x1="46.8638" y1="55.5796" x2="78.8909" y2="143.573" stroke="white" stroke-width="13.8281" stroke-linecap="round"/>
<mask id="mask0" mask-type="alpha" maskUnits="userSpaceOnUse" x="127" y="48" width="30" height="60">
<rect x="127.539" y="48.3359" width="29.3848" height="58.7695" fill="white"/>
</mask>
<g mask="url(#mask0)">
<circle cx="127.539" cy="77.7207" r="22.4707" stroke="white" stroke-width="13.8281"/>
</g>
<path d="M265.15 82.25L244.15 132H239.95L218.95 82.25H222.7C223.167 82.25 223.55 82.3833 223.85 82.65C224.15 82.8833 224.35 83.15 224.45 83.45L240.9 122.7C241.4 124.167 241.8 125.617 242.1 127.05C242.4 125.617 242.817 124.167 243.35 122.7L259.85 83.45C260.017 83.0833 260.233 82.8 260.5 82.6C260.8 82.3667 261.15 82.25 261.55 82.25H265.15ZM280.695 82.25V132H275.945V82.25H280.695ZM282.745 65.1C282.745 65.7 282.612 66.2667 282.345 66.8C282.112 67.3 281.795 67.75 281.395 68.15C280.995 68.55 280.529 68.8667 279.995 69.1C279.462 69.3333 278.895 69.45 278.295 69.45C277.695 69.45 277.129 69.3333 276.595 69.1C276.062 68.8667 275.595 68.55 275.195 68.15C274.795 67.75 274.479 67.3 274.245 66.8C274.012 66.2667 273.895 65.7 273.895 65.1C273.895 64.5 274.012 63.9333 274.245 63.4C274.479 62.8333 274.795 62.35 275.195 61.95C275.595 61.55 276.062 61.2333 276.595 61C277.129 60.7667 277.695 60.65 278.295 60.65C278.895 60.65 279.462 60.7667 279.995 61C280.529 61.2333 280.995 61.55 281.395 61.95C281.795 62.35 282.112 62.8333 282.345 63.4C282.612 63.9333 282.745 64.5 282.745 65.1ZM302.211 90.95C304.511 88.0833 307.161 85.7833 310.161 84.05C313.194 82.3167 316.561 81.45 320.261 81.45C322.994 81.45 325.394 81.8833 327.461 82.75C329.561 83.6167 331.294 84.8667 332.661 86.5C334.028 88.1333 335.061 90.1 335.761 92.4C336.461 94.7 336.811 97.3 336.811 100.2V132H332.011V100.2C332.011 95.5333 330.944 91.8833 328.811 89.25C326.678 86.5833 323.428 85.25 319.061 85.25C315.828 85.25 312.794 86.0833 309.961 87.75C307.161 89.3833 304.661 91.6667 302.461 94.6V132H297.661V82.25H300.311C301.144 82.25 301.628 82.6667 301.761 83.5L302.211 90.95ZM386.091 88.9C385.925 89.0667 385.758 89.2167 385.591 89.35C385.458 89.45 385.258 89.5 384.991 89.5C384.658 89.5 384.208 89.2833 383.641 88.85C383.075 88.3833 382.308 87.8833 381.341 87.35C380.375 86.8167 379.158 86.3333 377.691 85.9C376.258 85.4333 374.508 85.2 372.441 85.2C369.575 85.2 367.025 85.7167 364.791 86.75C362.591 87.75 360.725 89.2 359.191 91.1C357.658 93 356.491 95.3 355.691 98C354.925 100.7 354.541 103.733 354.541 107.1C354.541 110.6 354.941 113.7 355.741 116.4C356.575 119.1 357.741 121.383 359.241 123.25C360.741 125.083 362.558 126.483 364.691 127.45C366.825 128.417 369.191 128.9 371.791 128.9C374.191 128.9 376.191 128.617 377.791 128.05C379.425 127.483 380.758 126.867 381.791 126.2C382.858 125.533 383.691 124.917 384.291 124.35C384.891 123.783 385.391 123.5 385.791 123.5C386.191 123.5 386.525 123.667 386.791 124L388.041 125.6C387.275 126.6 386.308 127.533 385.141 128.4C383.975 129.267 382.658 130.017 381.191 130.65C379.725 131.283 378.125 131.767 376.391 132.1C374.691 132.467 372.908 132.65 371.041 132.65C367.875 132.65 364.975 132.083 362.341 130.95C359.741 129.783 357.491 128.117 355.591 125.95C353.725 123.75 352.258 121.067 351.191 117.9C350.158 114.733 349.641 111.133 349.641 107.1C349.641 103.3 350.141 99.8333 351.141 96.7C352.141 93.5667 353.608 90.8667 355.541 88.6C357.475 86.3333 359.825 84.5833 362.591 83.35C365.391 82.0833 368.591 81.45 372.191 81.45C375.425 81.45 378.291 81.9667 380.791 83C383.291 84.0333 385.475 85.4333 387.341 87.2L386.091 88.9ZM433.733 102.1C433.733 99.4333 433.349 97.05 432.583 94.95C431.849 92.8167 430.799 91.0167 429.433 89.55C428.066 88.0833 426.433 86.9667 424.533 86.2C422.666 85.4 420.599 85 418.333 85C415.766 85 413.466 85.4 411.433 86.2C409.399 87 407.633 88.15 406.133 89.65C404.666 91.15 403.483 92.95 402.583 95.05C401.683 97.15 401.083 99.5 400.783 102.1H433.733ZM400.533 105.15V106.1C400.533 109.833 400.966 113.117 401.833 115.95C402.699 118.783 403.933 121.167 405.533 123.1C407.133 125 409.066 126.433 411.333 127.4C413.599 128.367 416.133 128.85 418.933 128.85C421.433 128.85 423.599 128.583 425.433 128.05C427.266 127.483 428.799 126.867 430.033 126.2C431.299 125.5 432.299 124.883 433.033 124.35C433.766 123.783 434.299 123.5 434.633 123.5C435.066 123.5 435.399 123.667 435.633 124L436.933 125.6C436.133 126.6 435.066 127.533 433.733 128.4C432.433 129.267 430.966 130.017 429.333 130.65C427.733 131.25 425.999 131.733 424.133 132.1C422.299 132.467 420.449 132.65 418.583 132.65C415.183 132.65 412.083 132.067 409.283 130.9C406.483 129.7 404.083 127.967 402.083 125.7C400.083 123.433 398.533 120.667 397.433 117.4C396.366 114.1 395.833 110.333 395.833 106.1C395.833 102.533 396.333 99.25 397.333 96.25C398.366 93.2167 399.833 90.6167 401.733 88.45C403.666 86.25 406.016 84.5333 408.783 83.3C411.583 82.0667 414.749 81.45 418.283 81.45C421.083 81.45 423.683 81.9333 426.083 82.9C428.483 83.8667 430.566 85.2833 432.333 87.15C434.099 88.9833 435.483 91.25 436.483 93.95C437.516 96.65 438.033 99.75 438.033 103.25C438.033 103.983 437.933 104.483 437.733 104.75C437.533 105.017 437.199 105.15 436.733 105.15H400.533ZM455.531 90.95C457.831 88.0833 460.481 85.7833 463.481 84.05C466.515 82.3167 469.881 81.45 473.581 81.45C476.315 81.45 478.715 81.8833 480.781 82.75C482.881 83.6167 484.615 84.8667 485.981 86.5C487.348 88.1333 488.381 90.1 489.081 92.4C489.781 94.7 490.131 97.3 490.131 100.2V132H485.331V100.2C485.331 95.5333 484.265 91.8833 482.131 89.25C479.998 86.5833 476.748 85.25 472.381 85.25C469.148 85.25 466.115 86.0833 463.281 87.75C460.481 89.3833 457.981 91.6667 455.781 94.6V132H450.981V82.25H453.631C454.465 82.25 454.948 82.6667 455.081 83.5L455.531 90.95ZM518.878 132.8C515.511 132.8 512.878 131.867 510.978 130C509.111 128.133 508.178 125.25 508.178 121.35V87.35H501.028C500.661 87.35 500.361 87.25 500.128 87.05C499.895 86.85 499.778 86.5667 499.778 86.2V84.35L508.278 83.75L509.478 65.95C509.545 65.65 509.678 65.3833 509.878 65.15C510.078 64.9167 510.361 64.8 510.728 64.8H512.978V83.8H528.678V87.35H512.978V121.1C512.978 122.467 513.145 123.65 513.478 124.65C513.845 125.617 514.328 126.417 514.928 127.05C515.561 127.683 516.295 128.15 517.128 128.45C517.961 128.75 518.861 128.9 519.828 128.9C521.028 128.9 522.061 128.733 522.928 128.4C523.795 128.033 524.545 127.65 525.178 127.25C525.811 126.817 526.328 126.433 526.728 126.1C527.128 125.733 527.445 125.55 527.678 125.55C527.945 125.55 528.211 125.717 528.478 126.05L529.778 128.15C528.511 129.55 526.895 130.683 524.928 131.55C522.995 132.383 520.978 132.8 518.878 132.8ZM548.655 119.2C550.155 121.133 551.789 122.5 553.555 123.3C555.355 124.067 557.339 124.45 559.505 124.45C563.705 124.45 566.972 122.917 569.305 119.85C571.672 116.783 572.855 112.217 572.855 106.15C572.855 103.017 572.589 100.35 572.055 98.15C571.522 95.9167 570.755 94.1 569.755 92.7C568.755 91.3 567.539 90.2833 566.105 89.65C564.672 89.0167 563.055 88.7 561.255 88.7C558.522 88.7 556.155 89.3 554.155 90.5C552.189 91.6667 550.355 93.35 548.655 95.55V119.2ZM548.105 88.4C550.239 85.9 552.655 83.8833 555.355 82.35C558.089 80.8167 561.255 80.05 564.855 80.05C567.722 80.05 570.322 80.6333 572.655 81.8C574.989 82.9333 576.989 84.6 578.655 86.8C580.322 89 581.605 91.7333 582.505 95C583.439 98.2333 583.905 101.95 583.905 106.15C583.905 109.917 583.389 113.433 582.355 116.7C581.355 119.933 579.905 122.75 578.005 125.15C576.105 127.517 573.805 129.383 571.105 130.75C568.405 132.083 565.355 132.75 561.955 132.75C558.955 132.75 556.405 132.267 554.305 131.3C552.239 130.333 550.355 129 548.655 127.3V148.95H537.905V81H544.405C545.872 81 546.805 81.6833 547.205 83.05L548.105 88.4ZM621.601 109.7C617.767 109.833 614.534 110.15 611.901 110.65C609.267 111.117 607.134 111.733 605.501 112.5C603.867 113.233 602.684 114.117 601.951 115.15C601.251 116.183 600.901 117.317 600.901 118.55C600.901 119.75 601.084 120.783 601.451 121.65C601.851 122.483 602.384 123.183 603.051 123.75C603.751 124.283 604.551 124.683 605.451 124.95C606.384 125.183 607.401 125.3 608.501 125.3C611.301 125.3 613.701 124.783 615.701 123.75C617.734 122.683 619.701 121.15 621.601 119.15V109.7ZM593.101 88.1C598.867 82.7333 605.734 80.05 613.701 80.05C616.634 80.05 619.234 80.5333 621.501 81.5C623.801 82.4333 625.717 83.7667 627.251 85.5C628.817 87.2333 630.001 89.3 630.801 91.7C631.634 94.0667 632.051 96.7 632.051 99.6V132H627.251C626.217 132 625.434 131.85 624.901 131.55C624.367 131.217 623.917 130.567 623.551 129.6L622.501 125.45C621.201 126.617 619.917 127.667 618.651 128.6C617.384 129.5 616.067 130.267 614.701 130.9C613.367 131.533 611.917 132 610.351 132.3C608.817 132.633 607.117 132.8 605.251 132.8C603.184 132.8 601.251 132.517 599.451 131.95C597.684 131.383 596.151 130.533 594.851 129.4C593.551 128.233 592.517 126.8 591.751 125.1C591.017 123.4 590.651 121.4 590.651 119.1C590.651 117.133 591.167 115.217 592.201 113.35C593.267 111.483 595.001 109.817 597.401 108.35C599.834 106.85 603.017 105.617 606.951 104.65C610.917 103.683 615.801 103.133 621.601 103V99.6C621.601 95.9333 620.817 93.2 619.251 91.4C617.684 89.6 615.384 88.7 612.351 88.7C610.284 88.7 608.551 88.9667 607.151 89.5C605.751 90 604.534 90.55 603.501 91.15C602.467 91.75 601.551 92.3167 600.751 92.85C599.951 93.35 599.101 93.6 598.201 93.6C597.467 93.6 596.834 93.4167 596.301 93.05C595.801 92.65 595.384 92.1667 595.051 91.6L593.101 88.1ZM654.694 87.75C655.794 86.6167 656.927 85.6 658.094 84.7C659.294 83.7667 660.56 82.9667 661.894 82.3C663.227 81.6333 664.644 81.1167 666.144 80.75C667.644 80.3833 669.277 80.2 671.044 80.2C673.844 80.2 676.294 80.6667 678.394 81.6C680.527 82.5333 682.31 83.85 683.744 85.55C685.21 87.25 686.31 89.3 687.044 91.7C687.777 94.0667 688.144 96.6833 688.144 99.55V132H677.444V99.55C677.444 96.1167 676.644 93.45 675.044 91.55C673.477 89.65 671.077 88.7 667.844 88.7C665.444 88.7 663.21 89.25 661.144 90.35C659.11 91.45 657.194 92.95 655.394 94.85V132H644.644V81H651.144C652.61 81 653.544 81.6833 653.944 83.05L654.694 87.75ZM711.898 81V132H701.148V81H711.898ZM713.698 65.6C713.698 66.5667 713.498 67.4833 713.098 68.35C712.732 69.2167 712.215 69.9833 711.548 70.65C710.882 71.2833 710.098 71.8 709.198 72.2C708.332 72.5667 707.398 72.75 706.398 72.75C705.432 72.75 704.515 72.5667 703.648 72.2C702.815 71.8 702.082 71.2833 701.448 70.65C700.815 69.9833 700.298 69.2167 699.898 68.35C699.532 67.4833 699.348 66.5667 699.348 65.6C699.348 64.6 699.532 63.6667 699.898 62.8C700.298 61.9333 700.815 61.1833 701.448 60.55C702.082 59.8833 702.815 59.3667 703.648 59C704.515 58.6 705.432 58.4 706.398 58.4C707.398 58.4 708.332 58.6 709.198 59C710.098 59.3667 710.882 59.8833 711.548 60.55C712.215 61.1833 712.732 61.9333 713.098 62.8C713.498 63.6667 713.698 64.6 713.698 65.6ZM755.855 90.25C755.589 90.7167 755.289 91.05 754.955 91.25C754.622 91.45 754.205 91.55 753.705 91.55C753.139 91.55 752.522 91.3833 751.855 91.05C751.189 90.6833 750.405 90.2833 749.505 89.85C748.605 89.4167 747.539 89.0333 746.305 88.7C745.105 88.3333 743.689 88.15 742.055 88.15C740.722 88.15 739.505 88.3167 738.405 88.65C737.339 88.95 736.422 89.4 735.655 90C734.922 90.5667 734.355 91.25 733.955 92.05C733.555 92.8167 733.355 93.65 733.355 94.55C733.355 95.75 733.722 96.75 734.455 97.55C735.189 98.35 736.155 99.05 737.355 99.65C738.555 100.217 739.922 100.733 741.455 101.2C742.989 101.667 744.555 102.167 746.155 102.7C747.755 103.233 749.322 103.85 750.855 104.55C752.389 105.25 753.755 106.117 754.955 107.15C756.155 108.15 757.122 109.383 757.855 110.85C758.589 112.283 758.955 114.033 758.955 116.1C758.955 118.5 758.522 120.717 757.655 122.75C756.789 124.783 755.522 126.55 753.855 128.05C752.189 129.55 750.105 130.717 747.605 131.55C745.139 132.383 742.305 132.8 739.105 132.8C737.339 132.8 735.622 132.633 733.955 132.3C732.322 132 730.755 131.583 729.255 131.05C727.789 130.483 726.405 129.817 725.105 129.05C723.839 128.283 722.705 127.45 721.705 126.55L724.205 122.45C724.505 121.95 724.872 121.567 725.305 121.3C725.772 121 726.339 120.85 727.005 120.85C727.705 120.85 728.389 121.083 729.055 121.55C729.755 121.983 730.555 122.467 731.455 123C732.389 123.533 733.505 124.033 734.805 124.5C736.105 124.933 737.722 125.15 739.655 125.15C741.255 125.15 742.639 124.967 743.805 124.6C744.972 124.2 745.939 123.667 746.705 123C747.472 122.333 748.039 121.583 748.405 120.75C748.772 119.883 748.955 118.967 748.955 118C748.955 116.7 748.589 115.633 747.855 114.8C747.122 113.967 746.139 113.25 744.905 112.65C743.705 112.05 742.322 111.517 740.755 111.05C739.222 110.583 737.655 110.083 736.055 109.55C734.455 109.017 732.872 108.4 731.305 107.7C729.772 107 728.389 106.117 727.155 105.05C725.955 103.95 724.989 102.633 724.255 101.1C723.522 99.5333 723.155 97.6333 723.155 95.4C723.155 93.3667 723.555 91.4333 724.355 89.6C725.189 87.7667 726.389 86.15 727.955 84.75C729.555 83.35 731.505 82.25 733.805 81.45C736.139 80.6167 738.822 80.2 741.855 80.2C745.289 80.2 748.405 80.75 751.205 81.85C754.005 82.95 756.355 84.45 758.255 86.35L755.855 90.25Z" fill="white"/>
</svg>
